<svg width="42" height="47" viewBox="0 0 42 47" fill="none" xmlns="http://www.w3.org/2000/svg">
<path d="M39.5967 11.0032L21 0.666504L2.40333 11.0032L14.2333 17.5598C15.9367 15.7865 18.34 14.6665 21 14.6665C23.66 14.6665 26.0633 15.7865 27.7667 17.5598L39.5967 11.0032ZM16.3333 23.9998C16.3333 21.4332 18.4333 19.3332 21 19.3332C23.5667 19.3332 25.6667 21.4332 25.6667 23.9998C25.6667 26.5665 23.5667 28.6665 21 28.6665C18.4333 28.6665 16.3333 26.5665 16.3333 23.9998ZM18.6667 46.0265L0 35.6665V14.9932L11.97 21.6432C11.76 22.3898 11.6667 23.1832 11.6667 23.9998C11.6667 28.3398 14.63 32.0032 18.6667 33.0298V46.0265ZM23.3333 46.0265V33.0298C27.37 32.0032 30.3333 28.3398 30.3333 23.9998C30.3333 23.1832 30.24 22.3898 30.03 21.6432L42 14.9932V35.6665L23.3333 46.0265Z" fill="white"/>
</svg>
